<svg xmlns="http://www.w3.org/2000/svg" xmlns:xlink="http://www.w3.org/1999/xlink" viewBox="0,0,256,256" width="96px" height="96px" fill-rule="nonzero"><g transform=""><g fill="#fcfcfc" fill-rule="nonzero" stroke="none" stroke-width="1" stroke-linecap="butt" stroke-linejoin="miter" stroke-miterlimit="10" stroke-dasharray="" stroke-dashoffset="0" font-family="none" font-weight="none" font-size="none" text-anchor="none" style="mix-blend-mode: normal"><path d="M0,256v-256h256v256z" id="bgRectangle"></path></g><g fill="#ffffff" fill-rule="nonzero" stroke="none" stroke-width="1" stroke-linecap="butt" stroke-linejoin="miter" stroke-miterlimit="10" stroke-dasharray="" stroke-dashoffset="0" font-family="none" font-weight="none" font-size="none" text-anchor="none" style="mix-blend-mode: normal"><path d="M49.92,256c-27.57005,0 -49.92,-22.34995 -49.92,-49.92v-156.16c0,-27.57005 22.34995,-49.92 49.92,-49.92h156.16c27.57005,0 49.92,22.34995 49.92,49.92v156.16c0,27.57005 -22.34995,49.92 -49.92,49.92z" id="shape"></path></g><g fill="#000000" fill-rule="nonzero" stroke="none" stroke-width="1" stroke-linecap="butt" stroke-linejoin="miter" stroke-miterlimit="10" stroke-dasharray="" stroke-dashoffset="0" font-family="none" font-weight="none" font-size="none" text-anchor="none" style="mix-blend-mode: normal"><g transform="translate(-0.53067,-14.39467) scale(5.33333,5.33333)"><path d="M4.002,43.998l14.509,-16.789l-15.509,-20.211h13l10.613,13.832c0.172,0.196 0.469,0.227 0.68,0.065c0.219,-0.168 0.26,-0.483 0.092,-0.701l-1.324,-1.724l9.915,-11.472h6.024l-13.772,15.936l16.167,21.064h-12.999l-10.053,-13.097l-11.319,13.097zM33.121,43.002l-26.1,-34.008h9.256l-0.767,-1h-10.489l26.868,35.008zM36.786,39.998l-22.254,-29h-3.917l22.259,29zM24.01,46.998c11.035,0 19.992,0.225 19.992,0.501c0,0.276 -8.957,0.501 -19.992,0.501c-11.035,0 -19.992,-0.225 -19.992,-0.501c0,-0.276 8.957,-0.501 19.992,-0.501z"></path></g></g></g></svg>